<?xml version="1.0" encoding="UTF-8"?> <svg xmlns="http://www.w3.org/2000/svg" width="101" height="48.393" viewBox="0 0 101 48.393"><defs><style> .cls-1 { fill: #1976d2; stroke: #1976d2; } </style></defs><path id="leads-icon" class="cls-1" d="M154,250.181a10.616,10.616,0,0,0-8.892,16.406l-11.465,11.475a10.584,10.584,0,0,0-11.766.116L110.29,266.587a10.62,10.62,0,1,0-17.785,0L81.031,278.062a10.575,10.575,0,1,0,3.106,3.1L95.6,269.694a10.616,10.616,0,0,0,11.581,0l11.659,11.65a10.62,10.62,0,1,0,17.9-.185l11.475-11.465A10.615,10.615,0,1,0,154,250.181ZM75.245,293.186a6.232,6.232,0,1,1,6.223-6.233A6.239,6.239,0,0,1,75.245,293.186ZM95.166,260.8a6.232,6.232,0,1,1,6.232,6.223A6.24,6.24,0,0,1,95.166,260.8Zm32.686,32.385a6.232,6.232,0,1,1,6.232-6.233A6.24,6.24,0,0,1,127.852,293.186ZM154,267.024a6.228,6.228,0,1,1,6.232-6.223A6.229,6.229,0,0,1,154,267.024Z" transform="translate(-64.125 -249.681)"></path></svg> 